# Tiled2Unity generated file. Do not modify by hand.
# Wavefront file for 'forest_mesh_0015.obj'

# Vertices (Count = 240)
v -2.133333 -1.066667 -0.05
v -3.2 -1.066667 -0.05
v -3.2 0 -0.05
v -2.133333 0 -0.05
v -22.4 -2.133333 -0.1
v -23.46667 -2.133333 -0.1
v -23.46667 -1.066667 -0.1
v -22.4 -1.066667 -0.1
v -21.33333 -2.133333 -0.1
v -22.4 -2.133333 -0.1
v -22.4 -1.066667 -0.1
v -21.33333 -1.066667 -0.1
v -9.6 -2.133333 -0.1
v -10.66667 -2.133333 -0.1
v -10.66667 -1.066667 -0.1
v -9.6 -1.066667 -0.1
v -4.266667 -2.133333 -0.1
v -5.333333 -2.133333 -0.1
v -5.333333 -1.066667 -0.1
v -4.266667 -1.066667 -0.1
v 0 -2.133333 -0.1
v -1.066667 -2.133333 -0.1
v -1.066667 -1.066667 -0.1
v 0 -1.066667 -0.1
v -38.4 -3.2 -0.15
v -39.46667 -3.2 -0.15
v -39.46667 -2.133333 -0.15
v -38.4 -2.133333 -0.15
v -34.13334 -3.2 -0.15
v -35.2 -3.2 -0.15
v -35.2 -2.133333 -0.15
v -34.13334 -2.133333 -0.15
v -28.8 -3.2 -0.15
v -29.86667 -3.2 -0.15
v -29.86667 -2.133333 -0.15
v -28.8 -2.133333 -0.15
v -24.53333 -4.266667 -0.2
v -25.6 -4.266667 -0.2
v -25.6 -3.2 -0.2
v -24.53333 -3.2 -0.2
v -19.2 -4.266667 -0.2
v -20.26667 -4.266667 -0.2
v -20.26667 -3.2 -0.2
v -19.2 -3.2 -0.2
v -14.93333 -4.266667 -0.2
v -16 -4.266667 -0.2
v -16 -3.2 -0.2
v -14.93333 -3.2 -0.2
v -36.26667 -5.333333 -0.25
v -37.33334 -5.333333 -0.25
v -37.33334 -4.266667 -0.25
v -36.26667 -4.266667 -0.25
v -35.2 -5.333333 -0.25
v -36.26667 -5.333333 -0.25
v -36.26667 -4.266667 -0.25
v -35.2 -4.266667 -0.25
v -23.46667 -6.400001 -0.3
v -24.53333 -6.400001 -0.3
v -24.53333 -5.333333 -0.3
v -23.46667 -5.333333 -0.3
v -22.4 -6.400001 -0.3
v -23.46667 -6.400001 -0.3
v -23.46667 -5.333333 -0.3
v -22.4 -5.333333 -0.3
v -18.13334 -6.400001 -0.3
v -19.2 -6.400001 -0.3
v -19.2 -5.333333 -0.3
v -18.13334 -5.333333 -0.3
v -17.06667 -6.400001 -0.3
v -18.13334 -6.400001 -0.3
v -18.13334 -5.333333 -0.3
v -17.06667 -5.333333 -0.3
v -16 -6.400001 -0.3
v -17.06667 -6.400001 -0.3
v -17.06667 -5.333333 -0.3
v -16 -5.333333 -0.3
v -14.93333 -6.400001 -0.3
v -16 -6.400001 -0.3
v -16 -5.333333 -0.3
v -14.93333 -5.333333 -0.3
v -13.86667 -6.400001 -0.3
v -14.93333 -6.400001 -0.3
v -14.93333 -5.333333 -0.3
v -13.86667 -5.333333 -0.3
v -11.73333 -6.400001 -0.3
v -12.8 -6.400001 -0.3
v -12.8 -5.333333 -0.3
v -11.73333 -5.333333 -0.3
v -6.400001 -6.400001 -0.3
v -7.466667 -6.400001 -0.3
v -7.466667 -5.333333 -0.3
v -6.400001 -5.333333 -0.3
v -1.066667 -6.400001 -0.3
v -2.133333 -6.400001 -0.3
v -2.133333 -5.333333 -0.3
v -1.066667 -5.333333 -0.3
v -26.66667 -7.466667 -0.35
v -27.73334 -7.466667 -0.35
v -27.73334 -6.400001 -0.35
v -26.66667 -6.400001 -0.35
v -18.13334 -7.466667 -0.35
v -19.2 -7.466667 -0.35
v -19.2 -6.400001 -0.35
v -18.13334 -6.400001 -0.35
v -17.06667 -7.466667 -0.35
v -18.13334 -7.466667 -0.35
v -18.13334 -6.400001 -0.35
v -17.06667 -6.400001 -0.35
v -16 -7.466667 -0.35
v -17.06667 -7.466667 -0.35
v -17.06667 -6.400001 -0.35
v -16 -6.400001 -0.35
v -41.6 -8.533334 -0.4
v -42.66667 -8.533334 -0.4
v -42.66667 -7.466667 -0.4
v -41.6 -7.466667 -0.4
v -38.4 -8.533334 -0.4
v -39.46667 -8.533334 -0.4
v -39.46667 -7.466667 -0.4
v -38.4 -7.466667 -0.4
v -34.13334 -8.533334 -0.4
v -35.2 -8.533334 -0.4
v -35.2 -7.466667 -0.4
v -34.13334 -7.466667 -0.4
v -29.86667 -8.533334 -0.4
v -30.93333 -8.533334 -0.4
v -30.93333 -7.466667 -0.4
v -29.86667 -7.466667 -0.4
v -11.73333 -10.66667 -0.5
v -12.8 -10.66667 -0.5
v -12.8 -9.6 -0.5
v -11.73333 -9.6 -0.5
v -6.400001 -10.66667 -0.5
v -7.466667 -10.66667 -0.5
v -7.466667 -9.6 -0.5
v -6.400001 -9.6 -0.5
v -4.266667 -10.66667 -0.5
v -5.333333 -10.66667 -0.5
v -5.333333 -9.6 -0.5
v -4.266667 -9.6 -0.5
v -3.2 -10.66667 -0.5
v -4.266667 -10.66667 -0.5
v -4.266667 -9.6 -0.5
v -3.2 -9.6 -0.5
v -1.066667 -10.66667 -0.5
v -2.133333 -10.66667 -0.5
v -2.133333 -9.6 -0.5
v -1.066667 -9.6 -0.5
v -41.6 -13.86667 -0.65
v -42.66667 -13.86667 -0.65
v -42.66667 -12.8 -0.65
v -41.6 -12.8 -0.65
v -38.4 -13.86667 -0.65
v -39.46667 -13.86667 -0.65
v -39.46667 -12.8 -0.65
v -38.4 -12.8 -0.65
v -34.13334 -13.86667 -0.65
v -35.2 -13.86667 -0.65
v -35.2 -12.8 -0.65
v -34.13334 -12.8 -0.65
v -29.86667 -13.86667 -0.65
v -30.93333 -13.86667 -0.65
v -30.93333 -12.8 -0.65
v -29.86667 -12.8 -0.65
v -26.66667 -14.93333 -0.7
v -27.73334 -14.93333 -0.7
v -27.73334 -13.86667 -0.7
v -26.66667 -13.86667 -0.7
v -11.73333 -16 -0.75
v -12.8 -16 -0.75
v -12.8 -14.93333 -0.75
v -11.73333 -14.93333 -0.75
v -6.400001 -16 -0.75
v -7.466667 -16 -0.75
v -7.466667 -14.93333 -0.75
v -6.400001 -14.93333 -0.75
v -1.066667 -16 -0.75
v -2.133333 -16 -0.75
v -2.133333 -14.93333 -0.75
v -1.066667 -14.93333 -0.75
v -40.53334 -18.13334 -0.85
v -41.6 -18.13334 -0.85
v -41.6 -17.06667 -0.85
v -40.53334 -17.06667 -0.85
v -36.26667 -18.13334 -0.85
v -37.33334 -18.13334 -0.85
v -37.33334 -17.06667 -0.85
v -36.26667 -17.06667 -0.85
v -30.93333 -18.13334 -0.85
v -32 -18.13334 -0.85
v -32 -17.06667 -0.85
v -30.93333 -17.06667 -0.85
v -24.53333 -18.13334 -0.85
v -25.6 -18.13334 -0.85
v -25.6 -17.06667 -0.85
v -24.53333 -17.06667 -0.85
v -20.26667 -18.13334 -0.85
v -21.33333 -18.13334 -0.85
v -21.33333 -17.06667 -0.85
v -20.26667 -17.06667 -0.85
v -16 -18.13334 -0.85
v -17.06667 -18.13334 -0.85
v -17.06667 -17.06667 -0.85
v -16 -17.06667 -0.85
v -9.6 -19.2 -0.9
v -10.66667 -19.2 -0.9
v -10.66667 -18.13334 -0.9
v -9.6 -18.13334 -0.9
v -4.266667 -19.2 -0.9
v -5.333333 -19.2 -0.9
v -5.333333 -18.13334 -0.9
v -4.266667 -18.13334 -0.9
v -27.73334 -20.26667 -0.95
v -28.8 -20.26667 -0.95
v -28.8 -19.2 -0.95
v -27.73334 -19.2 -0.95
v -26.66667 -20.26667 -0.95
v -27.73334 -20.26667 -0.95
v -27.73334 -19.2 -0.95
v -26.66667 -19.2 -0.95
v -12.8 -20.26667 -0.95
v -13.86667 -20.26667 -0.95
v -13.86667 -19.2 -0.95
v -12.8 -19.2 -0.95
v -19.2 -21.33333 -1
v -20.26667 -21.33333 -1
v -20.26667 -20.26667 -1
v -19.2 -20.26667 -1
v -18.13334 -21.33333 -1
v -19.2 -21.33333 -1
v -19.2 -20.26667 -1
v -18.13334 -20.26667 -1
v -3.2 -21.33333 -1
v -4.266667 -21.33333 -1
v -4.266667 -20.26667 -1
v -3.2 -20.26667 -1
v -2.133333 -21.33333 -1
v -3.2 -21.33333 -1
v -3.2 -20.26667 -1
v -2.133333 -20.26667 -1

# Texture cooridinates (Count = 4)
vt 0 0
vt 1 0
vt 1 1
vt 0 1

# Normal
vn 0 0 -1

# Mesh description
g forest_mesh_0015

# Faces
f 1/1/1 2/2/1 3/3/1 4/4/1
f 5/1/1 6/2/1 7/3/1 8/4/1
f 9/1/1 10/2/1 11/3/1 12/4/1
f 13/1/1 14/2/1 15/3/1 16/4/1
f 17/1/1 18/2/1 19/3/1 20/4/1
f 21/1/1 22/2/1 23/3/1 24/4/1
f 25/1/1 26/2/1 27/3/1 28/4/1
f 29/1/1 30/2/1 31/3/1 32/4/1
f 33/1/1 34/2/1 35/3/1 36/4/1
f 37/1/1 38/2/1 39/3/1 40/4/1
f 41/1/1 42/2/1 43/3/1 44/4/1
f 45/1/1 46/2/1 47/3/1 48/4/1
f 49/1/1 50/2/1 51/3/1 52/4/1
f 53/1/1 54/2/1 55/3/1 56/4/1
f 57/1/1 58/2/1 59/3/1 60/4/1
f 61/1/1 62/2/1 63/3/1 64/4/1
f 65/1/1 66/2/1 67/3/1 68/4/1
f 69/1/1 70/2/1 71/3/1 72/4/1
f 73/1/1 74/2/1 75/3/1 76/4/1
f 77/1/1 78/2/1 79/3/1 80/4/1
f 81/1/1 82/2/1 83/3/1 84/4/1
f 85/1/1 86/2/1 87/3/1 88/4/1
f 89/1/1 90/2/1 91/3/1 92/4/1
f 93/1/1 94/2/1 95/3/1 96/4/1
f 97/1/1 98/2/1 99/3/1 100/4/1
f 101/1/1 102/2/1 103/3/1 104/4/1
f 105/1/1 106/2/1 107/3/1 108/4/1
f 109/1/1 110/2/1 111/3/1 112/4/1
f 113/1/1 114/2/1 115/3/1 116/4/1
f 117/1/1 118/2/1 119/3/1 120/4/1
f 121/1/1 122/2/1 123/3/1 124/4/1
f 125/1/1 126/2/1 127/3/1 128/4/1
f 129/1/1 130/2/1 131/3/1 132/4/1
f 133/1/1 134/2/1 135/3/1 136/4/1
f 137/1/1 138/2/1 139/3/1 140/4/1
f 141/1/1 142/2/1 143/3/1 144/4/1
f 145/1/1 146/2/1 147/3/1 148/4/1
f 149/1/1 150/2/1 151/3/1 152/4/1
f 153/1/1 154/2/1 155/3/1 156/4/1
f 157/1/1 158/2/1 159/3/1 160/4/1
f 161/1/1 162/2/1 163/3/1 164/4/1
f 165/1/1 166/2/1 167/3/1 168/4/1
f 169/1/1 170/2/1 171/3/1 172/4/1
f 173/1/1 174/2/1 175/3/1 176/4/1
f 177/1/1 178/2/1 179/3/1 180/4/1
f 181/1/1 182/2/1 183/3/1 184/4/1
f 185/1/1 186/2/1 187/3/1 188/4/1
f 189/1/1 190/2/1 191/3/1 192/4/1
f 193/1/1 194/2/1 195/3/1 196/4/1
f 197/1/1 198/2/1 199/3/1 200/4/1
f 201/1/1 202/2/1 203/3/1 204/4/1
f 205/1/1 206/2/1 207/3/1 208/4/1
f 209/1/1 210/2/1 211/3/1 212/4/1
f 213/1/1 214/2/1 215/3/1 216/4/1
f 217/1/1 218/2/1 219/3/1 220/4/1
f 221/1/1 222/2/1 223/3/1 224/4/1
f 225/1/1 226/2/1 227/3/1 228/4/1
f 229/1/1 230/2/1 231/3/1 232/4/1
f 233/1/1 234/2/1 235/3/1 236/4/1
f 237/1/1 238/2/1 239/3/1 240/4/1

