# Tiled2Unity generated file. Do not modify by hand.
# Wavefront file for 'forest_mesh_0013.obj'

# Vertices (Count = 12)
v -16 -5.333333 -0.25
v -17.06667 -5.333333 -0.25
v -17.06667 -4.266667 -0.25
v -16 -4.266667 -0.25
v -14.93333 -5.333333 -0.25
v -16 -5.333333 -0.25
v -16 -4.266667 -0.25
v -14.93333 -4.266667 -0.25
v -13.86667 -5.333333 -0.25
v -14.93333 -5.333333 -0.25
v -14.93333 -4.266667 -0.25
v -13.86667 -4.266667 -0.25

# Texture cooridinates (Count = 8)
vt 0.1875 0.1875
vt 0.25 0.1875
vt 0.25 0.25
vt 0.1875 0.25
vt 0.125 0.1875
vt 0.125 0.25
vt 0.0625 0.1875
vt 0.0625 0.25

# Normal
vn 0 0 -1

# Mesh description
g forest_mesh_0013

# Faces
f 1/1/1 2/2/1 3/3/1 4/4/1
f 5/5/1 6/1/1 7/4/1 8/6/1
f 9/7/1 10/5/1 11/6/1 12/8/1

