# Tiled2Unity generated file. Do not modify by hand.
# Wavefront file for 'forest_mesh_0010.obj'

# Vertices (Count = 32)
v -23.46667 -5.333333 -0.25
v -24.53333 -5.333333 -0.25
v -24.53333 -4.266667 -0.25
v -23.46667 -4.266667 -0.25
v -22.4 -5.333333 -0.25
v -23.46667 -5.333333 -0.25
v -23.46667 -4.266667 -0.25
v -22.4 -4.266667 -0.25
v -18.13334 -5.333333 -0.25
v -19.2 -5.333333 -0.25
v -19.2 -4.266667 -0.25
v -18.13334 -4.266667 -0.25
v -17.06667 -5.333333 -0.25
v -18.13334 -5.333333 -0.25
v -18.13334 -4.266667 -0.25
v -17.06667 -4.266667 -0.25
v -23.46667 -6.400001 -0.3
v -24.53333 -6.400001 -0.3
v -24.53333 -5.333333 -0.3
v -23.46667 -5.333333 -0.3
v -22.4 -6.400001 -0.3
v -23.46667 -6.400001 -0.3
v -23.46667 -5.333333 -0.3
v -22.4 -5.333333 -0.3
v -18.13334 -6.400001 -0.3
v -19.2 -6.400001 -0.3
v -19.2 -5.333333 -0.3
v -18.13334 -5.333333 -0.3
v -17.06667 -6.400001 -0.3
v -18.13334 -6.400001 -0.3
v -18.13334 -5.333333 -0.3
v -17.06667 -5.333333 -0.3

# Texture cooridinates (Count = 9)
vt 0.75 0.5
vt 0.8125 0.5
vt 0.8125 0.5625
vt 0.75 0.5625
vt 0.6875 0.5
vt 0.6875 0.5625
vt 0.75 0.4375
vt 0.8125 0.4375
vt 0.6875 0.4375

# Normal
vn 0 0 -1

# Mesh description
g forest_mesh_0010

# Faces
f 1/1/1 2/2/1 3/3/1 4/4/1
f 5/5/1 6/1/1 7/4/1 8/6/1
f 9/1/1 10/2/1 11/3/1 12/4/1
f 13/5/1 14/1/1 15/4/1 16/6/1
f 17/7/1 18/8/1 19/2/1 20/1/1
f 21/9/1 22/7/1 23/1/1 24/5/1
f 25/7/1 26/8/1 27/2/1 28/1/1
f 29/9/1 30/7/1 31/1/1 32/5/1

