# Tiled2Unity generated file. Do not modify by hand.
# Wavefront file for 'forest_mesh_0003.obj'

# Vertices (Count = 64)
v -30.93333 -3.2 -0.15
v -32 -3.2 -0.15
v -32 -2.133333 -0.15
v -30.93333 -2.133333 -0.15
v -17.06667 -3.2 -0.15
v -18.13334 -3.2 -0.15
v -18.13334 -2.133333 -0.15
v -17.06667 -2.133333 -0.15
v -10.66667 -4.266667 -0.2
v -11.73333 -4.266667 -0.2
v -11.73333 -3.2 -0.2
v -10.66667 -3.2 -0.2
v -3.2 -4.266667 -0.2
v -4.266667 -4.266667 -0.2
v -4.266667 -3.2 -0.2
v -3.2 -3.2 -0.2
v -38.4 -5.333333 -0.25
v -39.46667 -5.333333 -0.25
v -39.46667 -4.266667 -0.25
v -38.4 -4.266667 -0.25
v -32 -6.400001 -0.3
v -33.06667 -6.400001 -0.3
v -33.06667 -5.333333 -0.3
v -32 -5.333333 -0.3
v -9.6 -8.533334 -0.4
v -10.66667 -8.533334 -0.4
v -10.66667 -7.466667 -0.4
v -9.6 -7.466667 -0.4
v -8.533334 -11.73333 -0.55
v -9.6 -11.73333 -0.55
v -9.6 -10.66667 -0.55
v -8.533334 -10.66667 -0.55
v -3.2 -11.73333 -0.55
v -4.266667 -11.73333 -0.55
v -4.266667 -10.66667 -0.55
v -3.2 -10.66667 -0.55
v -2.133333 -12.8 -0.6
v -3.2 -12.8 -0.6
v -3.2 -11.73333 -0.6
v -2.133333 -11.73333 -0.6
v -37.33334 -14.93333 -0.7
v -38.4 -14.93333 -0.7
v -38.4 -13.86667 -0.7
v -37.33334 -13.86667 -0.7
v -2.133333 -17.06667 -0.8
v -3.2 -17.06667 -0.8
v -3.2 -16 -0.8
v -2.133333 -16 -0.8
v -33.06667 -19.2 -0.9
v -34.13334 -19.2 -0.9
v -34.13334 -18.13334 -0.9
v -33.06667 -18.13334 -0.9
v -39.46667 -20.26667 -0.95
v -40.53334 -20.26667 -0.95
v -40.53334 -19.2 -0.95
v -39.46667 -19.2 -0.95
v -21.33333 -20.26667 -0.95
v -22.4 -20.26667 -0.95
v -22.4 -19.2 -0.95
v -21.33333 -19.2 -0.95
v -10.66667 -20.26667 -0.95
v -11.73333 -20.26667 -0.95
v -11.73333 -19.2 -0.95
v -10.66667 -19.2 -0.95

# Texture cooridinates (Count = 6)
vt 0.25 0.75
vt 0.3125 0.75
vt 0.3125 0.8125
vt 0.25 0.8125
vt 0.1875 0.75
vt 0.1875 0.8125

# Normal
vn 0 0 -1

# Mesh description
g forest_mesh_0003

# Faces
f 1/1/1 2/2/1 3/3/1 4/4/1
f 5/1/1 6/2/1 7/3/1 8/4/1
f 9/1/1 10/2/1 11/3/1 12/4/1
f 13/1/1 14/2/1 15/3/1 16/4/1
f 17/1/1 18/2/1 19/3/1 20/4/1
f 21/1/1 22/2/1 23/3/1 24/4/1
f 25/1/1 26/2/1 27/3/1 28/4/1
f 29/1/1 30/2/1 31/3/1 32/4/1
f 33/5/1 34/1/1 35/4/1 36/6/1
f 37/1/1 38/2/1 39/3/1 40/4/1
f 41/1/1 42/2/1 43/3/1 44/4/1
f 45/1/1 46/2/1 47/3/1 48/4/1
f 49/1/1 50/2/1 51/3/1 52/4/1
f 53/1/1 54/2/1 55/3/1 56/4/1
f 57/1/1 58/2/1 59/3/1 60/4/1
f 61/1/1 62/2/1 63/3/1 64/4/1

