# Tiled2Unity generated file. Do not modify by hand.
# Wavefront file for 'forest_mesh_0002.obj'

# Vertices (Count = 60)
v -21.33333 -3.2 -0.15
v -22.4 -3.2 -0.15
v -22.4 -2.133333 -0.15
v -21.33333 -2.133333 -0.15
v -3.2 -3.2 -0.15
v -4.266667 -3.2 -0.15
v -4.266667 -2.133333 -0.15
v -3.2 -2.133333 -0.15
v -40.53334 -4.266667 -0.2
v -41.6 -4.266667 -0.2
v -41.6 -3.2 -0.2
v -40.53334 -3.2 -0.2
v -32 -5.333333 -0.25
v -33.06667 -5.333333 -0.25
v -33.06667 -4.266667 -0.25
v -32 -4.266667 -0.25
v -9.6 -6.400001 -0.3
v -10.66667 -6.400001 -0.3
v -10.66667 -5.333333 -0.3
v -9.6 -5.333333 -0.3
v -4.266667 -8.533334 -0.4
v -5.333333 -8.533334 -0.4
v -5.333333 -7.466667 -0.4
v -4.266667 -7.466667 -0.4
v -9.6 -12.8 -0.6
v -10.66667 -12.8 -0.6
v -10.66667 -11.73333 -0.6
v -9.6 -11.73333 -0.6
v -3.2 -13.86667 -0.65
v -4.266667 -13.86667 -0.65
v -4.266667 -12.8 -0.65
v -3.2 -12.8 -0.65
v -39.46667 -16 -0.75
v -40.53334 -16 -0.75
v -40.53334 -14.93333 -0.75
v -39.46667 -14.93333 -0.75
v -2.133333 -18.13334 -0.85
v -3.2 -18.13334 -0.85
v -3.2 -17.06667 -0.85
v -2.133333 -17.06667 -0.85
v -23.46667 -20.26667 -0.95
v -24.53333 -20.26667 -0.95
v -24.53333 -19.2 -0.95
v -23.46667 -19.2 -0.95
v -17.06667 -20.26667 -0.95
v -18.13334 -20.26667 -0.95
v -18.13334 -19.2 -0.95
v -17.06667 -19.2 -0.95
v -1.066667 -20.26667 -0.95
v -2.133333 -20.26667 -0.95
v -2.133333 -19.2 -0.95
v -1.066667 -19.2 -0.95
v -33.06667 -21.33333 -1
v -34.13334 -21.33333 -1
v -34.13334 -20.26667 -1
v -33.06667 -20.26667 -1
v -7.466667 -21.33333 -1
v -8.533334 -21.33333 -1
v -8.533334 -20.26667 -1
v -7.466667 -20.26667 -1

# Texture cooridinates (Count = 4)
vt 0.5 0.5
vt 0.53125 0.5
vt 0.53125 0.53125
vt 0.5 0.53125

# Normal
vn 0 0 -1

# Mesh description
g forest_mesh_0002

# Faces
f 1/1/1 2/2/1 3/3/1 4/4/1
f 5/1/1 6/2/1 7/3/1 8/4/1
f 9/1/1 10/2/1 11/3/1 12/4/1
f 13/1/1 14/2/1 15/3/1 16/4/1
f 17/1/1 18/2/1 19/3/1 20/4/1
f 21/1/1 22/2/1 23/3/1 24/4/1
f 25/1/1 26/2/1 27/3/1 28/4/1
f 29/1/1 30/2/1 31/3/1 32/4/1
f 33/1/1 34/2/1 35/3/1 36/4/1
f 37/1/1 38/2/1 39/3/1 40/4/1
f 41/1/1 42/2/1 43/3/1 44/4/1
f 45/1/1 46/2/1 47/3/1 48/4/1
f 49/1/1 50/2/1 51/3/1 52/4/1
f 53/1/1 54/2/1 55/3/1 56/4/1
f 57/1/1 58/2/1 59/3/1 60/4/1

