# Tiled2Unity generated file. Do not modify by hand.
# Wavefront file for 'house1_mesh_0003.obj'

# Vertices (Count = 144)
v 0 -1.066667 -0.1
v -1.066667 -1.066667 -0.1
v -1.066667 0 -0.1
v 0 0 -0.1
v -1.066667 -1.066667 -0.1
v -2.133333 -1.066667 -0.1
v -2.133333 0 -0.1
v -1.066667 0 -0.1
v -2.133333 -1.066667 -0.1
v -3.2 -1.066667 -0.1
v -3.2 0 -0.1
v -2.133333 0 -0.1
v -3.2 -1.066667 -0.1
v -4.266667 -1.066667 -0.1
v -4.266667 0 -0.1
v -3.2 0 -0.1
v -4.266667 -1.066667 -0.1
v -5.333333 -1.066667 -0.1
v -5.333333 0 -0.1
v -4.266667 0 -0.1
v -5.333333 -1.066667 -0.1
v -6.400001 -1.066667 -0.1
v -6.400001 0 -0.1
v -5.333333 0 -0.1
v -6.400001 -1.066667 -0.1
v -7.466667 -1.066667 -0.1
v -7.466667 0 -0.1
v -6.400001 0 -0.1
v -7.466667 -1.066667 -0.1
v -8.533334 -1.066667 -0.1
v -8.533334 0 -0.1
v -7.466667 0 -0.1
v -8.533334 -1.066667 -0.1
v -9.6 -1.066667 -0.1
v -9.6 0 -0.1
v -8.533334 0 -0.1
v -9.6 -1.066667 -0.1
v -10.66667 -1.066667 -0.1
v -10.66667 0 -0.1
v -9.6 0 -0.1
v 0 -2.133333 -0.2
v -1.066667 -2.133333 -0.2
v -1.066667 -1.066667 -0.2
v 0 -1.066667 -0.2
v -9.6 -2.133333 -0.2
v -10.66667 -2.133333 -0.2
v -10.66667 -1.066667 -0.2
v -9.6 -1.066667 -0.2
v 0 -3.2 -0.3
v -1.066667 -3.2 -0.3
v -1.066667 -2.133333 -0.3
v 0 -2.133333 -0.3
v -9.6 -3.2 -0.3
v -10.66667 -3.2 -0.3
v -10.66667 -2.133333 -0.3
v -9.6 -2.133333 -0.3
v 0 -4.266667 -0.4
v -1.066667 -4.266667 -0.4
v -1.066667 -3.2 -0.4
v 0 -3.2 -0.4
v -9.6 -4.266667 -0.4
v -10.66667 -4.266667 -0.4
v -10.66667 -3.2 -0.4
v -9.6 -3.2 -0.4
v 0 -5.333333 -0.5
v -1.066667 -5.333333 -0.5
v -1.066667 -4.266667 -0.5
v 0 -4.266667 -0.5
v -9.6 -5.333333 -0.5
v -10.66667 -5.333333 -0.5
v -10.66667 -4.266667 -0.5
v -9.6 -4.266667 -0.5
v 0 -6.400001 -0.6
v -1.066667 -6.400001 -0.6
v -1.066667 -5.333333 -0.6
v 0 -5.333333 -0.6
v -9.6 -6.400001 -0.6
v -10.66667 -6.400001 -0.6
v -10.66667 -5.333333 -0.6
v -9.6 -5.333333 -0.6
v 0 -7.466667 -0.7
v -1.066667 -7.466667 -0.7
v -1.066667 -6.400001 -0.7
v 0 -6.400001 -0.7
v -9.6 -7.466667 -0.7
v -10.66667 -7.466667 -0.7
v -10.66667 -6.400001 -0.7
v -9.6 -6.400001 -0.7
v 0 -8.533334 -0.8
v -1.066667 -8.533334 -0.8
v -1.066667 -7.466667 -0.8
v 0 -7.466667 -0.8
v -9.6 -8.533334 -0.8
v -10.66667 -8.533334 -0.8
v -10.66667 -7.466667 -0.8
v -9.6 -7.466667 -0.8
v 0 -9.6 -0.9
v -1.066667 -9.6 -0.9
v -1.066667 -8.533334 -0.9
v 0 -8.533334 -0.9
v -9.6 -9.6 -0.9
v -10.66667 -9.6 -0.9
v -10.66667 -8.533334 -0.9
v -9.6 -8.533334 -0.9
v 0 -10.66667 -1
v -1.066667 -10.66667 -1
v -1.066667 -9.6 -1
v 0 -9.6 -1
v -1.066667 -10.66667 -1
v -2.133333 -10.66667 -1
v -2.133333 -9.6 -1
v -1.066667 -9.6 -1
v -2.133333 -10.66667 -1
v -3.2 -10.66667 -1
v -3.2 -9.6 -1
v -2.133333 -9.6 -1
v -3.2 -10.66667 -1
v -4.266667 -10.66667 -1
v -4.266667 -9.6 -1
v -3.2 -9.6 -1
v -4.266667 -10.66667 -1
v -5.333333 -10.66667 -1
v -5.333333 -9.6 -1
v -4.266667 -9.6 -1
v -5.333333 -10.66667 -1
v -6.400001 -10.66667 -1
v -6.400001 -9.6 -1
v -5.333333 -9.6 -1
v -6.400001 -10.66667 -1
v -7.466667 -10.66667 -1
v -7.466667 -9.6 -1
v -6.400001 -9.6 -1
v -7.466667 -10.66667 -1
v -8.533334 -10.66667 -1
v -8.533334 -9.6 -1
v -7.466667 -9.6 -1
v -8.533334 -10.66667 -1
v -9.6 -10.66667 -1
v -9.6 -9.6 -1
v -8.533334 -9.6 -1
v -9.6 -10.66667 -1
v -10.66667 -10.66667 -1
v -10.66667 -9.6 -1
v -9.6 -9.6 -1

# Texture cooridinates (Count = 4)
vt 0 0
vt 1 0
vt 1 1
vt 0 1

# Normal
vn 0 0 -1

# Mesh description
g house1_mesh_0003

# Faces
f 1/1/1 2/2/1 3/3/1 4/4/1
f 5/1/1 6/2/1 7/3/1 8/4/1
f 9/1/1 10/2/1 11/3/1 12/4/1
f 13/1/1 14/2/1 15/3/1 16/4/1
f 17/1/1 18/2/1 19/3/1 20/4/1
f 21/1/1 22/2/1 23/3/1 24/4/1
f 25/1/1 26/2/1 27/3/1 28/4/1
f 29/1/1 30/2/1 31/3/1 32/4/1
f 33/1/1 34/2/1 35/3/1 36/4/1
f 37/1/1 38/2/1 39/3/1 40/4/1
f 41/1/1 42/2/1 43/3/1 44/4/1
f 45/1/1 46/2/1 47/3/1 48/4/1
f 49/1/1 50/2/1 51/3/1 52/4/1
f 53/1/1 54/2/1 55/3/1 56/4/1
f 57/1/1 58/2/1 59/3/1 60/4/1
f 61/1/1 62/2/1 63/3/1 64/4/1
f 65/1/1 66/2/1 67/3/1 68/4/1
f 69/1/1 70/2/1 71/3/1 72/4/1
f 73/1/1 74/2/1 75/3/1 76/4/1
f 77/1/1 78/2/1 79/3/1 80/4/1
f 81/1/1 82/2/1 83/3/1 84/4/1
f 85/1/1 86/2/1 87/3/1 88/4/1
f 89/1/1 90/2/1 91/3/1 92/4/1
f 93/1/1 94/2/1 95/3/1 96/4/1
f 97/1/1 98/2/1 99/3/1 100/4/1
f 101/1/1 102/2/1 103/3/1 104/4/1
f 105/1/1 106/2/1 107/3/1 108/4/1
f 109/1/1 110/2/1 111/3/1 112/4/1
f 113/1/1 114/2/1 115/3/1 116/4/1
f 117/1/1 118/2/1 119/3/1 120/4/1
f 121/1/1 122/2/1 123/3/1 124/4/1
f 125/1/1 126/2/1 127/3/1 128/4/1
f 129/1/1 130/2/1 131/3/1 132/4/1
f 133/1/1 134/2/1 135/3/1 136/4/1
f 137/1/1 138/2/1 139/3/1 140/4/1
f 141/1/1 142/2/1 143/3/1 144/4/1

